PathFileType	4	(X/Y/Z)	./resultDataOpenSim/trcMotMarkerGrf/sub10/qtm-05-03.trc
DataRate	CameraRate	NumFrames	NumMarkers	Units	OrigDataRate	OrigDataStartFrame	OrigNumFrames
250.000000	250.000000	11	24	m	250.000000	65	513
Frame#	Time	L.Toe.Tip			R.Toe.Tip			L.Ankle.Lat			R.Ankle.Lat			L.Ankle.Med			R.Ankle.Med			L.Heel			R.Heel			L.Knee.Lat			R.Knee.Lat			L.Knee.Med			R.Knee.Med			L.Thigh.Upper			R.Thigh.Upper			L.ASIS			R.ASIS			V.Sacral			L.Acromium			R.Acromium			C7			L.Elbow			R.Elbow			L.Wrist.Lat			R.Wrist.Lat
		X1	Y1	Z1	X2	Y2	Z2	X3	Y3	Z3	X4	Y4	Z4	X5	Y5	Z5	X6	Y6	Z6	X7	Y7	Z7	X8	Y8	Z8	X9	Y9	Z9	X10	Y10	Z10	X11	Y11	Z11	X12	Y12	Z12	X13	Y13	Z13	X14	Y14	Z14	X15	Y15	Z15	X16	Y16	Z16	X17	Y17	Z17	X18	Y18	Z18	X19	Y19	Z19	X20	Y20	Z20	X21	Y21	Z21	X22	Y22	Z22	X23	Y23	Z23	X24	Y24	Z24

65	0.256	-1.4460442	0.064368124	-0.21490224	-0.75182157	0.039043721	-0.022746785	-1.4298063	0.20161704	-0.25014786	-0.8967052	0.053148932	0.0070385429	-1.4036214	0.19683699	-0.17138949	-0.8741656	0.078688224	-0.077384567	-1.4636954	0.2547439	-0.2039543	-0.94363506	0.029029262	-0.042390276	-1.1132805	0.40902109	-0.26703189	-0.86593526	0.45076668	0.034255141	-1.0967743	0.36517817	-0.15344725	-0.86523973	0.45785326	-0.094664953	-1.0428694	0.78157175	-0.28954218	-0.9818245	0.85481031	0.088794171	-0.97051537	0.89330978	-0.23629942	-0.93519611	0.93521639	-0.0029842964	-1.1511511	0.92936922	-0.091997495	-1.0153754	1.3920953	-0.2568312	-1.0469243	1.3759376	0.06394552	-1.1129265	1.409681	-0.10522854	-1.0679721	1.0484728	-0.32287041	-1.1772531	1.0571137	0.082381494	-0.86274325	0.908037	-0.28400012	-1.1327705	0.83157072	0.15667228
66	0.26	-1.4384632	0.067501496	-0.21482356	-0.75169372	0.038967065	-0.022866466	-1.4191561	0.20430764	-0.24991678	-0.89691912	0.053127935	0.0069738099	-1.3932401	0.19917316	-0.17101866	-0.87396244	0.078637281	-0.077541721	-1.4518386	0.25808445	-0.20382061	-0.9436724	0.029014005	-0.042385958	-1.1014401	0.40867266	-0.26677298	-0.86375013	0.45081342	0.034637798	-1.0849511	0.36538931	-0.15287425	-0.86311968	0.45769163	-0.094502056	-1.0358911	0.78180988	-0.28876145	-0.97650199	0.85514858	0.089404062	-0.9647423	0.89400275	-0.23575142	-0.92928651	0.93544702	-0.0023024282	-1.1454288	0.92979065	-0.091339209	-1.0093303	1.3927279	-0.25635693	-1.040533	1.3766269	0.064537314	-1.1070095	1.4106395	-0.10448212	-1.0631228	1.0493928	-0.32254832	-1.1704643	1.0575409	0.08364	-0.85902547	0.90744083	-0.2838282	-1.1247187	0.83185149	0.15711055
67	0.264	-1.4301643	0.070615908	-0.21448356	-0.75158027	0.03890041	-0.022988092	-1.4084035	0.20695583	-0.24964167	-0.89715112	0.053108821	0.0069129602	-1.3827357	0.20151891	-0.17058493	-0.87378703	0.078601081	-0.077690137	-1.4402569	0.2611109	-0.20332822	-0.94371902	0.028999436	-0.042379923	-1.0895844	0.40842283	-0.26643614	-0.86129305	0.45084914	0.034894025	-1.0731491	0.36586633	-0.15223718	-0.86113369	0.45756316	-0.094371443	-1.0289903	0.78217924	-0.28803474	-0.97129516	0.8554376	0.089980853	-0.95912865	0.89476499	-0.23532495	-0.9234787	0.9356541	-0.0016180218	-1.1398612	0.93025624	-0.090761395	-1.0032352	1.3933798	-0.25588876	-1.0341553	1.3773463	0.065109496	-1.1010797	1.4116312	-0.1037534	-1.0582982	1.0503145	-0.32224619	-1.1636618	1.0579815	0.084902908	-0.85519783	0.9068394	-0.28365622	-1.1165637	0.83213121	0.15753448
68	0.268	-1.4210169	0.073607746	-0.21399176	-0.75148365	0.038841528	-0.023104904	-1.3975304	0.20958221	-0.24928989	-0.89732309	0.053110036	0.0068658543	-1.3720881	0.20389614	-0.17011116	-0.87363432	0.07857386	-0.077831242	-1.4289049	0.26389996	-0.20258495	-0.94376984	0.028987237	-0.042375756	-1.0777944	0.40827975	-0.266011	-0.85861497	0.45088845	0.034984134	-1.0610479	0.36659712	-0.15166441	-0.85918209	0.45743159	-0.09430923	-1.0221736	0.78267244	-0.28735791	-0.96621285	0.85569086	0.090527921	-0.95363464	0.89562334	-0.2350043	-0.91765523	0.93586299	-0.00089317066	-1.1343823	0.93076186	-0.090260932	-0.99714263	1.3940505	-0.25545284	-1.027755	1.3781052	0.065633134	-1.0951512	1.4126375	-0.10304577	-1.053506	1.051249	-0.32196946	-1.1567524	1.0583978	0.086090404	-0.85115829	0.90624633	-0.2834351	-1.1082667	0.83241217	0.15797506
69	0.272	-1.4109223	0.076400405	-0.21346477	-0.75140151	0.038788991	-0.023213557	-1.3865036	0.21217952	-0.24883929	-0.89743237	0.053129114	0.0068307256	-1.3613203	0.20630137	-0.16959308	-0.87349748	0.078549358	-0.077968609	-1.4177704	0.26652381	-0.2018158	-0.94381931	0.0289796	-0.042377775	-1.0660456	0.40826841	-0.26550443	-0.85583218	0.45091751	0.034948268	-1.0482763	0.36758336	-0.15129932	-0.8571622	0.45728752	-0.094303426	-1.0154469	0.78328607	-0.28672182	-0.9612766	0.85591827	0.091044064	-0.94818177	0.89661409	-0.23474185	-0.91176438	0.9360899	-0.00010952582	-1.1289464	0.93130209	-0.089848496	-0.99112478	1.3947376	-0.25507572	-1.0213292	1.3789251	0.066094158	-1.0892365	1.4136532	-0.10236767	-1.0487498	1.0522086	-0.32171698	-1.149615	1.0587328	0.08710305	-0.84703782	0.90567325	-0.28321128	-1.0997866	0.83271469	0.1584535
70	0.276	-1.3999172	0.078942024	-0.21294135	-0.75132989	0.038744425	-0.023313252	-1.3753229	0.2146977	-0.24831197	-0.89750914	0.053152994	0.006798669	-1.3504572	0.20871704	-0.16901708	-0.87336934	0.07852287	-0.078105222	-1.406853	0.26898965	-0.20115112	-0.94386258	0.028977903	-0.042388447	-1.0542523	0.40842255	-0.26494257	-0.85309271	0.45089816	0.034896492	-1.0349508	0.3687737	-0.15111451	-0.8549443	0.4571602	-0.094287695	-1.0088239	0.78401388	-0.28612298	-0.95651288	0.85612144	0.091515591	-0.94266308	0.89775493	-0.234468	-0.90586268	0.93634885	0.00071801339	-1.123533	0.931879	-0.089534886	-0.98520873	1.3954418	-0.25475119	-1.0149321	1.379819	0.066520704	-1.0833445	1.4146808	-0.10173047	-1.0440283	1.0531999	-0.32148881	-1.1422317	1.0589721	0.087927774	-0.84313191	0.90512065	-0.28310318	-1.0911307	0.83307252	0.15895217
71	0.28	-1.3880532	0.0812296	-0.21242359	-0.75126649	0.038710385	-0.023402709	-1.3640169	0.21706478	-0.24775614	-0.89756275	0.053172504	0.0067632213	-1.3394508	0.21112228	-0.16839871	-0.87323999	0.07849122	-0.078242775	-1.3961385	0.27126208	-0.20059759	-0.94389645	0.028981955	-0.042407654	-1.0423593	0.40876733	-0.26435366	-0.85053134	0.45080156	0.034926324	-1.0219332	0.37001972	-0.1508143	-0.85239058	0.45710518	-0.094175478	-1.0023232	0.78484176	-0.28555931	-0.9519264	0.85630899	0.091933718	-0.93697827	0.89903084	-0.23413068	-0.90008296	0.93665815	0.001565568	-1.1181361	0.93249664	-0.089323939	-0.97937734	1.3961667	-0.25444892	-1.0086311	1.3807729	0.066951057	-1.077482	1.4157207	-0.10114167	-1.0393428	1.0542245	-0.32129035	-1.1347838	1.0591919	0.088713787	-0.83961458	0.9045847	-0.28317717	-1.0823509	0.83350894	0.15942323
72	0.284	-1.3753554	0.08330007	-0.21191811	-0.75121291	0.038686993	-0.023480358	-1.3526	0.21922873	-0.24720392	-0.8975804	0.053187117	0.0067244102	-1.3281692	0.21349835	-0.16778599	-0.87310316	0.078454154	-0.078378084	-1.3855775	0.27330616	-0.20011819	-0.94391881	0.028990595	-0.042434126	-1.0303607	0.40931117	-0.26376039	-0.84820439	0.45063329	0.035051539	-1.0099749	0.37118065	-0.1501016	-0.84952022	0.45715276	-0.093933585	-0.99595868	0.78575577	-0.28501104	-0.94747309	0.85651019	0.092324441	-0.93112029	0.90039565	-0.23373977	-0.89452348	0.93703185	0.0024271068	-1.1127531	0.93315668	-0.089210454	-0.97360424	1.3969164	-0.25413939	-1.0024597	1.3817583	0.067390661	-1.071654	1.4167747	-0.10060598	-1.0347025	1.0552797	-0.32112807	-1.1274945	1.0594873	0.089646144	-0.83639445	0.90406914	-0.28338095	-1.0734964	0.83401486	0.15981925
73	0.288	-1.3619713	0.08518131	-0.21141521	-0.75117552	0.038671814	-0.023545108	-1.3410598	0.22117371	-0.24665471	-0.89755479	0.053201813	0.0066849606	-1.3165388	0.21581846	-0.16720486	-0.87296784	0.078415836	-0.078501797	-1.3750846	0.27509452	-0.19965121	-0.94392922	0.029003001	-0.042467156	-1.0182791	0.41005725	-0.26317054	-0.84608057	0.45042403	0.035235754	-0.99884828	0.37226085	-0.14901122	-0.84665257	0.45724918	-0.093628642	-0.98974136	0.78674772	-0.28444971	-0.94308318	0.85675975	0.092737368	-0.9252332	0.9017819	-0.2333715	-0.88918107	0.93747492	0.0033145105	-1.1073843	0.93385942	-0.089180303	-0.96787196	1.3976955	-0.25380649	-0.99639819	1.3827631	0.067821641	-1.065864	1.4178422	-0.10012944	-1.030117	1.056355	-0.32099968	-1.1203899	1.0598637	0.090755635	-0.83327354	0.90358133	-0.28361488	-1.0646091	0.83456261	0.16011991
74	0.292	-1.3481627	0.086873428	-0.21090068	-0.75116232	0.038663175	-0.023594272	-1.329376	0.22291316	-0.24609197	-0.89750085	0.053219495	0.0066456678	-1.3046695	0.21803924	-0.16662103	-0.87285608	0.078382368	-0.07860367	-1.3645548	0.2766058	-0.1991215	-0.94393093	0.029019068	-0.042505479	-1.0061535	0.41100294	-0.26257318	-0.84410002	0.45020387	0.035450401	-0.98780618	0.3733805	-0.14783633	-0.84418101	0.4572972	-0.093357894	-0.98368783	0.78781068	-0.28388661	-0.93871158	0.85707452	0.093202549	-0.91949291	0.90313534	-0.23309949	-0.88399272	0.93798557	0.0042471365	-1.1020411	0.93460008	-0.089224127	-0.96217887	1.3985108	-0.25345331	-0.99040316	1.3838025	0.068235735	-1.0601162	1.4189108	-0.099714552	-1.025588	1.0574409	-0.32088939	-1.1133205	1.0602536	0.091939033	-0.83014468	0.90312335	-0.28382918	-1.0557455	0.83513509	0.16034806
75	0.296	-1.334101	0.088373627	-0.21036999	-0.75117841	0.038663519	-0.023622362	-1.3175273	0.22447266	-0.2454976	-0.89744729	0.053238293	0.0066057492	-1.2927508	0.22011277	-0.16598546	-0.87278855	0.078358734	-0.078677197	-1.3538948	0.27783862	-0.19852522	-0.9439307	0.029040006	-0.042546921	-0.99402915	0.41211399	-0.26195358	-0.84223933	0.44998598	0.035683311	-0.97645643	0.37464249	-0.14679543	-0.84218362	0.45726293	-0.093145567	-0.97781424	0.78894158	-0.28338736	-0.93433685	0.85745267	0.093720837	-0.91393494	0.90444985	-0.23292349	-0.87889775	0.93855329	0.0052414185	-1.0967402	0.93537502	-0.089341702	-0.95653739	1.3993678	-0.25309993	-0.98446293	1.3848896	0.068640131	-1.0544154	1.4199591	-0.099353184	-1.0211115	1.058541	-0.32078251	-1.1061386	1.060613	0.093106924	-0.82701434	0.90269358	-0.28403408	-1.0469474	0.83573087	0.16054999
